<?xml version="1.0" standalone="no"?>
<!DOCTYPE svg PUBLIC "-//W3C//DTD SVG 20010904//EN"
 "http://www.w3.org/TR/2001/REC-SVG-20010904/DTD/svg10.dtd">
<svg version="1.0" xmlns="http://www.w3.org/2000/svg"
 width="512.000000pt" height="512.000000pt" viewBox="0 0 512.000000 512.000000"
 preserveAspectRatio="xMidYMid meet">

<g transform="translate(0.000000,512.000000) scale(0.100000,-0.100000)"
fill="#000000" stroke="none">
<path d="M2430 4554 c-459 -41 -863 -247 -1114 -569 -113 -144 -179 -277 -226
-450 -18 -68 -23 -123 -31 -365 -5 -157 -16 -339 -24 -405 -36 -277 -109 -516
-246 -806 -74 -156 -93 -239 -85 -369 3 -52 15 -128 26 -168 37 -134 214 -461
339 -629 100 -136 181 -191 314 -219 94 -20 149 -12 326 48 233 78 377 111
591 133 384 41 759 -7 1154 -147 60 -21 134 -41 165 -44 111 -12 248 36 338
118 88 82 225 292 342 527 91 180 112 249 118 386 7 138 -7 196 -87 365 -136
290 -209 528 -245 806 -8 66 -20 248 -24 405 -10 307 -21 375 -87 531 -179
427 -617 747 -1139 833 -92 15 -324 26 -405 19z m406 -124 c547 -94 970 -452
1095 -927 13 -48 23 -126 26 -205 5 -117 4 -128 -11 -128 -10 0 -95 11 -190
25 -755 109 -1624 109 -2393 0 -94 -14 -179 -25 -189 -25 -27 0 -14 234 21
360 123 451 551 806 1084 900 152 26 401 27 557 0z m424 -1284 c273 -24 602
-64 678 -83 14 -3 22 -13 22 -25 0 -17 -5 -19 -32 -14 -395 73 -895 116 -1363
116 -479 0 -976 -42 -1372 -116 -29 -5 -33 -3 -33 15 0 13 8 22 23 26 119 26
469 70 687 85 85 6 175 12 200 14 25 2 261 2 525 1 341 -2 534 -8 665 -19z
m-847 -126 c-142 -39 -286 -110 -538 -268 -200 -125 -270 -148 -349 -114 -34
16 -51 32 -74 72 -30 53 -69 206 -59 233 11 29 665 91 1007 95 l85 1 -72 -19z
m522 10 c116 -6 257 -15 315 -20 213 -20 465 -52 474 -61 13 -12 -10 -143 -35
-199 -67 -152 -194 -162 -386 -32 -220 149 -440 261 -598 302 -70 19 -70 19
-25 19 25 1 140 -4 255 -9z m-1634 -185 c30 -151 101 -265 188 -303 82 -35
222 -10 346 63 44 26 52 29 30 10 -16 -13 -99 -61 -184 -106 -167 -87 -227
-124 -279 -173 -48 -44 -62 -77 -62 -143 1 -127 94 -306 230 -444 168 -169
239 -169 449 2 506 412 568 414 1029 42 159 -128 233 -173 288 -173 125 0 344
232 419 446 28 79 33 170 11 212 -30 57 -115 116 -337 236 -69 38 -136 77
-150 88 -18 15 -13 14 21 -5 223 -122 384 -89 471 96 17 37 39 106 48 152 16
84 35 120 24 48 -9 -69 -34 -145 -80 -247 -79 -172 -67 -230 70 -332 83 -62
97 -80 97 -120 0 -84 -113 -300 -243 -467 -84 -107 -188 -211 -226 -227 -54
-22 -57 -20 -303 166 -482 366 -706 369 -1172 19 -66 -50 -152 -114 -189 -143
-104 -80 -141 -71 -258 60 -195 218 -349 479 -349 593 0 39 4 44 111 131 75
61 109 110 109 156 0 29 -24 99 -73 213 -43 102 -77 235 -59 235 4 0 14 -38
23 -85z m-126 38 c15 -75 50 -187 85 -269 59 -139 59 -139 14 -179 -22 -19
-64 -53 -94 -77 -71 -57 -95 -98 -94 -163 3 -151 165 -433 383 -666 80 -86
148 -134 204 -144 53 -10 132 32 277 145 521 410 691 412 1205 12 72 -56 152
-113 180 -128 104 -57 182 -29 316 115 189 202 341 448 374 609 24 113 1 158
-123 251 -87 64 -101 88 -80 138 9 21 32 76 52 123 31 75 48 130 70 233 12 53
23 26 35 -85 33 -306 111 -571 261 -888 93 -196 104 -298 44 -415 -84 -165
-281 -432 -371 -503 -51 -40 -79 -50 -125 -45 l-37 5 6 48 c12 103 -75 200
-178 200 -62 0 -96 -13 -139 -55 l-35 -33 -140 89 c-180 114 -346 200 -465
240 -79 26 -115 32 -210 36 -100 4 -128 1 -213 -21 -153 -39 -274 -101 -587
-296 -243 -153 -366 -208 -468 -213 -42 -2 -57 3 -94 29 -96 69 -304 345 -394
522 -36 72 -37 75 -31 161 6 96 13 118 111 328 117 254 190 509 223 781 17
139 27 170 38 115z m1578 -36 c85 -44 183 -112 398 -279 47 -37 162 -108 255
-158 176 -96 258 -149 268 -176 30 -77 -69 -286 -199 -419 -86 -89 -125 -105
-182 -77 -21 11 -103 73 -183 137 -297 239 -431 306 -586 292 -129 -12 -250
-80 -498 -280 -88 -71 -180 -138 -203 -150 -37 -18 -45 -19 -75 -6 -44 18
-130 100 -184 175 -60 84 -116 206 -122 265 -8 84 18 107 279 244 127 66 196
111 304 196 150 117 272 202 345 239 79 41 121 50 208 47 76 -3 90 -7 175 -50z
m-87 -1428 c164 -29 343 -114 639 -304 l80 -51 1 -50 c1 -103 71 -175 178
-182 57 -4 65 -2 116 33 50 34 59 36 103 31 39 -6 58 -2 95 16 58 27 167 135
251 248 35 47 69 90 74 95 25 25 -113 -221 -181 -325 -135 -204 -214 -260
-366 -260 -62 0 -94 7 -202 46 -155 55 -315 96 -489 126 -113 19 -166 22 -405
22 -241 1 -291 -2 -405 -22 -165 -29 -358 -79 -505 -132 -172 -62 -273 -57
-385 20 -72 50 -196 226 -303 430 -62 119 -60 119 28 0 85 -114 194 -221 253
-250 44 -20 55 -22 110 -12 34 5 99 24 144 41 79 31 136 64 423 241 345 213
540 276 746 239z m994 -304 c88 -84 42 -222 -77 -232 -83 -7 -146 50 -146 132
0 51 21 88 66 116 46 29 118 22 157 -16z"/>
<path d="M980 1934 c-62 -28 -75 -43 -55 -63 11 -12 23 -9 80 18 50 23 66 35
63 48 -5 26 -26 25 -88 -3z"/>
<path d="M4057 1953 c-18 -18 -1 -37 58 -64 66 -31 85 -31 85 0 0 13 -18 26
-61 45 -65 28 -72 30 -82 19z"/>
<path d="M1063 1820 c-62 -29 -80 -54 -48 -66 16 -7 125 40 137 59 7 11 -8 37
-21 37 -3 0 -34 -13 -68 -30z"/>
<path d="M3977 1843 c-21 -20 -3 -42 54 -67 61 -28 89 -29 89 -1 0 22 -128 84
-143 68z"/>
<path d="M1147 1708 c-66 -31 -77 -44 -56 -65 8 -8 26 -4 68 14 74 33 90 48
71 68 -13 13 -23 11 -83 -17z"/>
<path d="M3890 1725 c-18 -21 0 -38 65 -65 56 -23 85 -22 85 3 0 12 -31 31
-107 63 -26 11 -33 11 -43 -1z"/>
<path d="M1218 1590 c-60 -31 -64 -36 -49 -59 14 -21 146 39 146 65 0 29 -34
27 -97 -6z"/>
<path d="M3807 1613 c-18 -18 -1 -37 59 -64 51 -22 70 -27 80 -18 23 19 17 27
-46 59 -60 30 -81 36 -93 23z"/>
</g>
</svg>
